<svg width="36" height="36" viewBox="0 0 36 36" fill="none" xmlns="http://www.w3.org/2000/svg">
<g clip-path="url(#clip0_97_668)">
<path d="M8.29542 20.3659L17.9507 30L27.606 20.3659C27.72 20.2789 27.8139 20.1684 27.8815 20.0418C27.9491 19.9152 27.9889 19.7755 27.998 19.6322C28.0071 19.4888 27.9854 19.3452 27.9344 19.211C27.8833 19.0769 27.8042 18.9552 27.7022 18.8544C27.6002 18.7536 27.4778 18.6759 27.3433 18.6267C27.2088 18.5774 27.0654 18.5577 26.9226 18.5689C26.7798 18.5801 26.6412 18.6219 26.5159 18.6915C26.3907 18.7611 26.2818 18.8569 26.1967 18.9724L18.9502 26.1805L18.9502 7.00251C18.9502 6.73663 18.8449 6.48163 18.6575 6.29363C18.47 6.10562 18.2158 6 17.9507 6C17.6856 6 17.4314 6.10562 17.244 6.29363C17.0565 6.48163 16.9512 6.73663 16.9512 7.00251L16.9512 26.1805L9.70473 18.9724C9.51652 18.785 9.26178 18.6802 8.99654 18.6811C8.73131 18.6821 8.47731 18.7887 8.29042 18.9774C8.10353 19.1662 7.99907 19.4217 8.00001 19.6878C8.00094 19.9538 8.10721 20.2085 8.29542 20.396V20.3659Z" fill="white"/>
</g>
<defs>
<clipPath id="clip0_97_668">
<rect width="36" height="36" fill="white" transform="matrix(-1 0 0 -1 36 36)"/>
</clipPath>
</defs>
</svg>
