<svg width="127" height="86" viewBox="0 0 127 86" fill="none" xmlns="http://www.w3.org/2000/svg">
<path d="M44.0063 0C42.6221 0 41.5 1.12212 41.5 2.50633V18.1013C41.5 19.4855 42.6221 20.6076 44.0063 20.6076H60.7152C61.4842 20.6076 62.1076 19.9842 62.1076 19.2152C62.1076 18.4462 61.4842 17.8228 60.7152 17.8228H44.2848V2.78481H59.3228V10.8608C59.3228 11.6298 59.9462 12.2532 60.7152 12.2532C61.4842 12.2532 62.1076 11.6298 62.1076 10.8608V2.50633C62.1076 1.12212 60.9855 0 59.6013 0H44.0063Z" fill="white"/>
<path d="M82.9937 20.6076C84.3779 20.6076 85.5 19.4855 85.5 18.1013V2.50633C85.5 1.12212 84.3779 0 82.9937 0H67.3987C66.0145 0 64.8924 1.12212 64.8924 2.50633V6.12658C64.8924 6.89559 65.5158 7.51899 66.2848 7.51899C67.0538 7.51899 67.6772 6.89559 67.6772 6.12658V2.78481H82.7152V17.8228H70.462V14.481C70.462 13.712 69.8386 13.0886 69.0696 13.0886C68.3005 13.0886 67.6771 13.712 67.6771 14.481V18.1013C67.6771 19.4855 68.7993 20.6076 70.1835 20.6076H82.9937Z" fill="white"/>
<path d="M67.3987 44C66.0145 44 64.8924 42.8779 64.8924 41.4937V28.6835C64.8924 27.2993 66.0145 26.1771 67.3987 26.1771H71.019C71.788 26.1771 72.4114 26.8005 72.4114 27.5696C72.4114 28.3386 71.788 28.962 71.019 28.962H67.6772V41.2152H82.7152V26.1772H79.3734C78.6044 26.1772 77.981 25.5538 77.981 24.7848C77.981 24.0158 78.6044 23.3924 79.3734 23.3924H82.9937C84.3779 23.3924 85.5 24.5145 85.5 25.8987V41.4937C85.5 42.8779 84.3779 44 82.9937 44H67.3987Z" fill="white"/>
<path d="M44.0063 23.3924C42.6221 23.3924 41.5 24.5145 41.5 25.8987V41.4937C41.5 42.8779 42.6221 44 44.0063 44H59.6013C60.9855 44 62.1076 42.8779 62.1076 41.4937V37.8734C62.1076 37.1044 61.4842 36.481 60.7152 36.481C59.9462 36.481 59.3228 37.1044 59.3228 37.8734V41.2152H44.2848V26.1772H59.3228V29.519C59.3228 30.288 59.9462 30.9114 60.7152 30.9114C61.4842 30.9114 62.1076 30.288 62.1076 29.519V25.8987C62.1076 24.5145 60.9855 23.3924 59.6013 23.3924H44.0063Z" fill="white"/>
<path d="M4.61328 77.0703C4.56641 77.0234 4.54297 76.8984 4.54297 76.6953C4.54297 76.4297 4.56641 76.2969 4.61328 76.2969C4.75391 76.2969 4.93359 76.2734 5.15234 76.2266C5.38672 76.1797 5.60547 76.1172 5.80859 76.0391C6.02734 75.9609 6.15234 75.875 6.18359 75.7812C6.29297 75.4688 6.34766 74.7578 6.34766 73.6484V64.7891C6.34766 63.8359 6.29297 63.1953 6.18359 62.8672C6.15234 62.7422 6.03516 62.6406 5.83203 62.5625C5.64453 62.4688 5.42578 62.3984 5.17578 62.3516C4.94141 62.3047 4.74609 62.2812 4.58984 62.2812C4.52734 62.2812 4.49609 62.1641 4.49609 61.9297C4.49609 61.7109 4.52734 61.5703 4.58984 61.5078C5.62109 61.5547 6.66016 61.5781 7.70703 61.5781H11.7617C13.0273 61.5781 14.1602 61.7812 15.1602 62.1875C16.1758 62.5781 17.0273 63.125 17.7148 63.8281C18.418 64.5312 18.9492 65.3359 19.3086 66.2422C19.6836 67.1484 19.8711 68.1094 19.8711 69.125C19.8711 70.625 19.543 71.9766 18.8867 73.1797C18.2461 74.3672 17.3164 75.3125 16.0977 76.0156C14.8789 76.7188 13.4258 77.0703 11.7383 77.0703C11.582 77.0703 11.3398 77.0625 11.0117 77.0469C10.6992 77.0469 10.3008 77.0391 9.81641 77.0234C9.33203 77.0078 8.91797 76.9922 8.57422 76.9766C8.23047 76.9609 7.94922 76.9609 7.73047 76.9766L4.61328 77.0703ZM12.1133 75.875C15.2852 75.875 16.8711 73.5938 16.8711 69.0312C16.8711 67.8594 16.6758 66.8047 16.2852 65.8672C15.9102 64.9141 15.3555 64.1562 14.6211 63.5938C13.9023 63.0312 13.0117 62.75 11.9492 62.75H11.832C10.332 62.75 9.48828 62.875 9.30078 63.125C9.09766 63.3906 8.99609 63.875 8.99609 64.5781V73.7656C8.99609 74.625 9.08203 75.2031 9.25391 75.5C9.50391 75.75 10.457 75.875 12.1133 75.875ZM21.207 77.0703C21.1602 77.0234 21.1367 76.8984 21.1367 76.6953C21.1367 76.4297 21.1602 76.2969 21.207 76.2969C21.3477 76.2969 21.5273 76.2734 21.7461 76.2266C21.9805 76.1797 22.1992 76.1172 22.4023 76.0391C22.6211 75.9609 22.7461 75.875 22.7773 75.7812C22.8867 75.4688 22.9414 74.7578 22.9414 73.6484V64.7891C22.9414 63.8359 22.8867 63.1953 22.7773 62.8672C22.7461 62.7422 22.6289 62.6406 22.4258 62.5625C22.2383 62.4688 22.0195 62.3984 21.7695 62.3516C21.5352 62.3047 21.3398 62.2812 21.1836 62.2812C21.1211 62.2812 21.0898 62.1641 21.0898 61.9297C21.0898 61.7109 21.1211 61.5703 21.1836 61.5078C21.6992 61.5391 22.2148 61.5703 22.7305 61.6016C23.2461 61.6172 23.7695 61.625 24.3008 61.625C24.6445 61.625 25.1211 61.6172 25.7305 61.6016C26.3398 61.5703 27.0742 61.5391 27.9336 61.5078C29.668 61.4609 30.9805 61.4375 31.8711 61.4375C31.9023 61.6719 31.9492 61.9531 32.0117 62.2812C32.0742 62.6094 32.1523 62.9766 32.2461 63.3828L32.5508 64.7656C32.4727 64.8438 32.3086 64.8828 32.0586 64.8828C31.8867 64.8828 31.7773 64.8281 31.7305 64.7188C31.2148 63.3281 30.2148 62.6328 28.7305 62.6328H27.5117C26.3398 62.6328 25.7461 62.7344 25.7305 62.9375C25.6367 63.375 25.5898 64.0078 25.5898 64.8359V68.5156C25.5898 68.6094 25.9336 68.6562 26.6211 68.6562H27.9336C28.8242 68.6562 29.3633 68.6172 29.5508 68.5391C29.7227 68.4609 29.8555 68.1875 29.9492 67.7188C29.9961 67.5156 30.043 67.3203 30.0898 67.1328C30.1055 67.0234 30.2305 66.9688 30.4648 66.9688C30.6836 66.9688 30.832 67.0078 30.9102 67.0859V71.5156C30.8477 71.5781 30.6992 71.6094 30.4648 71.6094C30.2617 71.6094 30.1367 71.5469 30.0898 71.4219C30.0273 71.2031 29.9727 71.0234 29.9258 70.8828C29.8789 70.7266 29.8398 70.5938 29.8086 70.4844C29.7305 70.3125 29.6836 70.2188 29.668 70.2031C29.6523 70.1719 29.5742 70.1094 29.4336 70.0156C29.2148 69.8906 28.4961 69.8281 27.2773 69.8281C26.1523 69.8281 25.5898 69.8906 25.5898 70.0156V73.6484C25.5898 74.5078 25.6602 75.1406 25.8008 75.5469C25.8633 75.75 26.3945 75.8516 27.3945 75.8516H28.2617C29.4961 75.8516 30.4258 75.6875 31.0508 75.3594C31.3008 75.2344 31.582 74.9609 31.8945 74.5391C32.207 74.1172 32.4492 73.6406 32.6211 73.1094C32.6523 73.0156 32.7617 72.9688 32.9492 72.9688C33.293 72.9688 33.5117 73.0156 33.6055 73.1094L32.8555 75.1953C32.7617 75.4453 32.6602 75.7656 32.5508 76.1562C32.4414 76.5312 32.3711 76.8359 32.3398 77.0703C31.7148 77.0703 30.4258 77.0469 28.4727 77C27.4883 76.9688 26.6523 76.9531 25.9648 76.9531C25.2773 76.9531 24.7305 76.9609 24.3242 76.9766L21.207 77.0703ZM47.1055 77.1875C46.0742 77.1875 45.1055 76.9844 44.1992 76.5781C43.3086 76.1719 42.5195 75.6094 41.832 74.8906C41.1602 74.1719 40.6289 73.3516 40.2383 72.4297C39.8633 71.4922 39.6758 70.5 39.6758 69.4531C39.6758 68.3438 39.8711 67.3047 40.2617 66.3359C40.668 65.3672 41.2227 64.5078 41.9258 63.7578C42.6289 63.0078 43.4414 62.4219 44.3633 62C45.3008 61.5781 46.3086 61.3672 47.3867 61.3672C48.793 61.3672 50.6055 61.6562 52.8242 62.2344C52.8711 62.25 52.9414 62.7656 53.0352 63.7812C53.0977 64.5625 53.1445 65.1094 53.1758 65.4219C53.207 65.7344 53.043 65.8906 52.6836 65.8906C52.4648 65.8906 52.293 65.8438 52.168 65.75C52.1211 65.5312 52.0508 65.3125 51.957 65.0938C51.8789 64.875 51.7305 64.5938 51.5117 64.25C51.1211 63.6875 50.5742 63.2578 49.8711 62.9609C49.1836 62.6641 48.3867 62.5156 47.4805 62.5156C46.4648 62.5156 45.5898 62.7969 44.8555 63.3594C44.1211 63.9062 43.5586 64.6719 43.168 65.6562C42.793 66.625 42.6055 67.75 42.6055 69.0312C42.6055 70.1406 42.8086 71.2188 43.2148 72.2656C43.4805 72.9531 43.8477 73.5859 44.3164 74.1641C44.8008 74.7266 45.3633 75.1797 46.0039 75.5234C46.6602 75.8516 47.3711 76.0156 48.1367 76.0156C49.1367 76.0156 49.8867 75.8672 50.3867 75.5703C50.543 75.4609 50.6211 75.2812 50.6211 75.0312L50.5977 73.3438V73.1797C50.5977 72.2266 50.543 71.5938 50.4336 71.2812C50.4023 71.1406 50.2852 71.0312 50.082 70.9531C49.8789 70.8594 49.6523 70.7969 49.4023 70.7656C49.1523 70.7188 48.9336 70.6953 48.7461 70.6953C48.6836 70.6953 48.6523 70.5781 48.6523 70.3438C48.6523 70.125 48.6836 69.9844 48.7461 69.9219C48.9336 69.9219 49.4102 69.9453 50.1758 69.9922C50.957 70.0391 51.5742 70.0625 52.0273 70.0625L54.8633 69.9219C54.9102 70.0625 54.9336 70.1953 54.9336 70.3203C54.9336 70.5859 54.9023 70.7188 54.8398 70.7188C54.7461 70.7188 54.5352 70.7656 54.207 70.8594C53.8945 70.9531 53.668 71.0312 53.5273 71.0938C53.3242 71.2031 53.2227 71.7734 53.2227 72.8047L53.2461 73.7891V74.3281C53.2461 74.5781 53.2852 74.8203 53.3633 75.0547C53.4414 75.2891 53.4805 75.4062 53.4805 75.4062C53.4805 75.625 53.3086 75.8125 52.9648 75.9688C52.3555 76.2344 51.8945 76.4297 51.582 76.5547C51.2852 76.6641 50.7148 76.7969 49.8711 76.9531C49.043 77.1094 48.1211 77.1875 47.1055 77.1875ZM70.3789 77.1406C68.7539 77.1406 67.4727 76.7656 66.5352 76.0156C65.9883 75.5938 65.4805 75.1016 65.0117 74.5391C64.5586 73.9766 64.1602 73.4297 63.8164 72.8984C63.4727 72.3516 63.1914 71.9062 62.9727 71.5625C62.6914 71.1562 62.418 70.7891 62.1523 70.4609C61.9023 70.1328 61.5273 69.9688 61.0273 69.9688C60.7773 69.9688 60.6523 70.1016 60.6523 70.3672V73.6719C60.6523 74.5781 60.7148 75.2422 60.8398 75.6641C60.8711 75.7891 61.0039 75.8984 61.2383 75.9922C61.4883 76.0859 61.7539 76.1641 62.0352 76.2266C62.3164 76.2734 62.5273 76.2969 62.668 76.2969C62.7305 76.2969 62.7617 76.4297 62.7617 76.6953C62.7617 76.8359 62.7461 76.9688 62.7148 77.0938C61.0117 77 59.9023 76.9531 59.3867 76.9531C58.9648 76.9531 58.4883 76.9609 57.957 76.9766C57.4414 76.9922 57.0273 77.0156 56.7148 77.0469L56.2461 77.0938C56.1992 77.0156 56.1758 76.875 56.1758 76.6719C56.1758 76.4219 56.1992 76.2969 56.2461 76.2969C56.3867 76.2969 56.5742 76.2734 56.8086 76.2266C57.043 76.1797 57.2617 76.1172 57.4648 76.0391C57.6836 75.9609 57.8086 75.875 57.8398 75.7812C57.9336 75.5 57.9805 74.7891 57.9805 73.6484V64.7891C57.9805 63.8984 57.9336 63.2578 57.8398 62.8672C57.8086 62.7734 57.6836 62.6875 57.4648 62.6094C57.2617 62.5156 57.0352 62.4375 56.7852 62.375C56.5508 62.3125 56.3711 62.2812 56.2461 62.2812C56.1836 62.2812 56.1523 62.1641 56.1523 61.9297C56.1523 61.6953 56.1836 61.5547 56.2461 61.5078C57.918 61.5547 58.957 61.5781 59.3633 61.5781C60.1289 61.5625 60.7227 61.5547 61.1445 61.5547C61.5664 61.5547 61.8867 61.5547 62.1055 61.5547C62.3242 61.5391 62.5117 61.5312 62.668 61.5312C63.4961 61.5312 64.3086 61.6797 65.1055 61.9766C65.9023 62.2734 66.5586 62.7266 67.0742 63.3359C67.6055 63.9453 67.8711 64.7188 67.8711 65.6562C67.8711 66.2188 67.7461 66.7656 67.4961 67.2969C67.2461 67.8281 66.9102 68.2969 66.4883 68.7031C66.0664 69.1094 65.5898 69.4219 65.0586 69.6406C64.9336 69.6875 64.9023 69.7656 64.9648 69.875C65.4023 70.6562 65.8398 71.3828 66.2773 72.0547C66.7148 72.7109 67.1523 73.3125 67.5898 73.8594C68.1367 74.5312 68.7227 75.1094 69.3477 75.5938C69.9883 76.0625 70.5742 76.2969 71.1055 76.2969C71.168 76.375 71.1992 76.5 71.1992 76.6719C71.1992 76.8438 71.168 76.9844 71.1055 77.0938C71.0117 77.1094 70.9023 77.1172 70.7773 77.1172C70.668 77.1328 70.5352 77.1406 70.3789 77.1406ZM62.1523 68.8438H62.7617C63.3398 68.8438 63.8555 68.5703 64.3086 68.0234C64.7773 67.4766 65.0117 66.7656 65.0117 65.8906C65.0117 63.7656 64.1055 62.7031 62.293 62.7031C61.6211 62.7031 61.168 62.7578 60.9336 62.8672C60.7461 62.9453 60.6523 63.7578 60.6523 65.3047V68C60.6523 68.3438 60.7852 68.5703 61.0508 68.6797C61.3164 68.7891 61.6836 68.8438 62.1523 68.8438ZM72.3242 77.0703C72.2617 77.0078 72.2305 76.8906 72.2305 76.7188C72.2305 76.4375 72.2461 76.2969 72.2773 76.2969C72.4023 76.2969 72.582 76.2656 72.8164 76.2031C73.0664 76.1406 73.3008 76.0625 73.5195 75.9688C73.7539 75.8594 73.9023 75.75 73.9648 75.6406C74.1211 75.4062 74.2695 75.1406 74.4102 74.8438C74.5508 74.5312 74.6992 74.1875 74.8555 73.8125L79.2148 63.2656C79.5898 62.3125 79.8789 61.75 80.082 61.5781C80.1914 61.4688 80.3242 61.4141 80.4805 61.4141C80.5898 61.4141 80.6836 61.4531 80.7617 61.5312L85.6836 73.8125C85.8086 74.1094 85.9258 74.4062 86.0352 74.7031C86.1602 74.9844 86.2773 75.2578 86.3867 75.5234C86.4492 75.6797 86.5898 75.8203 86.8086 75.9453C87.0273 76.0547 87.2539 76.1406 87.4883 76.2031C87.7227 76.2656 87.9023 76.2969 88.0273 76.2969C88.0898 76.2969 88.1211 76.4375 88.1211 76.7188C88.1211 76.8906 88.1055 77.0078 88.0742 77.0703L85.1211 76.9297L82.0742 77.0703C82.0117 77.0078 81.9805 76.8594 81.9805 76.625C81.9805 76.4062 82.0117 76.2969 82.0742 76.2969C82.2617 76.2969 82.5195 76.25 82.8477 76.1562C83.1758 76.0625 83.3711 75.9531 83.4336 75.8281C83.4805 75.7344 83.5039 75.6328 83.5039 75.5234C83.5039 75.3672 83.4648 75.1562 83.3867 74.8906C83.3086 74.625 83.1992 74.2969 83.0586 73.9062L82.2383 71.7266C82.1758 71.6641 82.1211 71.6328 82.0742 71.6328C81.8242 71.6172 81.5273 71.6094 81.1836 71.6094C80.8555 71.5938 80.4805 71.5859 80.0586 71.5859C79.2148 71.5859 78.3242 71.6094 77.3867 71.6562C77.293 71.6562 77.2461 71.6875 77.2461 71.75L76.3555 73.9297C76.1992 74.3203 76.082 74.6484 76.0039 74.9141C75.9414 75.1641 75.9102 75.3438 75.9102 75.4531C75.9102 75.6406 75.9961 75.7969 76.168 75.9219C76.2617 75.9844 76.4023 76.0469 76.5898 76.1094C76.793 76.1562 76.9961 76.2031 77.1992 76.25C77.4023 76.2812 77.543 76.2969 77.6211 76.2969C77.668 76.3125 77.6914 76.4219 77.6914 76.625C77.6914 76.7344 77.6836 76.8281 77.668 76.9062C77.668 76.9688 77.6602 77.0234 77.6445 77.0703C77.0664 77.0391 76.5898 77.0078 76.2148 76.9766C75.8555 76.9453 75.5195 76.9297 75.207 76.9297C74.8945 76.9297 74.5195 76.9375 74.082 76.9531C73.6445 76.9688 73.0586 77.0078 72.3242 77.0703ZM79.6367 70.3203C80.1992 70.3203 80.8398 70.2969 81.5586 70.25L81.6055 70.1562L79.8242 65.4688L77.9023 70.1562C77.9023 70.2188 77.918 70.25 77.9492 70.25C78.4961 70.2969 79.0586 70.3203 79.6367 70.3203ZM103.215 77.1172C102.98 77.1172 102.73 76.9375 102.465 76.5781L93.1367 64.2031V73.6953C93.1367 74.6016 93.1992 75.2422 93.3242 75.6172C93.3867 75.7422 93.543 75.8594 93.793 75.9688C94.0586 76.0625 94.332 76.1406 94.6133 76.2031C94.9102 76.2656 95.1211 76.2969 95.2461 76.2969C95.293 76.2969 95.3164 76.4062 95.3164 76.625C95.332 76.8438 95.3242 76.9922 95.293 77.0703L92.3633 76.9297C92.082 76.9297 91.7461 76.9453 91.3555 76.9766C90.9805 76.9922 90.6211 77.0078 90.2773 77.0234C89.9492 77.0391 89.7148 77.0547 89.5742 77.0703C89.5117 77.0078 89.4805 76.875 89.4805 76.6719C89.4805 76.4219 89.5117 76.2969 89.5742 76.2969C89.7617 76.2969 89.9883 76.2734 90.2539 76.2266C90.5195 76.1641 90.7695 76.0859 91.0039 75.9922C91.2539 75.8828 91.418 75.75 91.4961 75.5938C91.6523 75.2812 91.7305 74.625 91.7305 73.625V64.4375C91.7305 63.6094 91.6445 63.0391 91.4727 62.7266C91.4414 62.6484 91.3008 62.5781 91.0508 62.5156C90.8008 62.4531 90.5352 62.3984 90.2539 62.3516C89.9883 62.3047 89.7773 62.2812 89.6211 62.2812C89.5586 62.2812 89.5195 62.1641 89.5039 61.9297C89.5039 61.6953 89.5352 61.5469 89.5977 61.4844C90.4258 61.5156 91.0664 61.5469 91.5195 61.5781C91.9883 61.5938 92.2773 61.6016 92.3867 61.6016C92.6523 61.6016 92.957 61.5938 93.3008 61.5781C93.6602 61.5469 94.0586 61.5156 94.4961 61.4844C94.8398 62.1094 95.3945 62.9453 96.1602 63.9922C96.9258 65.0391 97.832 66.25 98.8789 67.625C99.9258 68.9844 101.027 70.4688 102.184 72.0781C102.199 71.9844 102.207 71.8594 102.207 71.7031C102.223 71.5312 102.23 71.3359 102.23 71.1172V64.7422C102.23 63.8984 102.152 63.2734 101.996 62.8672C101.949 62.7422 101.809 62.6328 101.574 62.5391C101.34 62.4453 101.09 62.375 100.824 62.3281C100.559 62.2812 100.34 62.2578 100.168 62.2578C100.105 62.2578 100.066 62.1484 100.051 61.9297C100.051 61.6953 100.074 61.5469 100.121 61.4844C100.949 61.5469 101.605 61.5938 102.09 61.625C102.59 61.6406 102.918 61.6484 103.074 61.6484C103.277 61.6484 103.512 61.6406 103.777 61.625C104.043 61.6094 104.332 61.5859 104.645 61.5547C105.285 61.5078 105.684 61.4844 105.84 61.4844C105.871 61.5781 105.887 61.7031 105.887 61.8594C105.887 62.125 105.855 62.2578 105.793 62.2578C105.652 62.2578 105.449 62.2891 105.184 62.3516C104.918 62.3984 104.66 62.4688 104.41 62.5625C104.16 62.6562 103.988 62.7734 103.895 62.9141C103.723 63.3516 103.637 64 103.637 64.8594V73.7422C103.637 74.0234 103.645 74.4375 103.66 74.9844C103.676 75.5312 103.699 76.2109 103.73 77.0234C103.668 77.0859 103.496 77.1172 103.215 77.1172ZM107.199 77.0703C107.152 77.0234 107.129 76.8984 107.129 76.6953C107.129 76.4297 107.152 76.2969 107.199 76.2969C107.34 76.2969 107.52 76.2734 107.738 76.2266C107.973 76.1797 108.191 76.1172 108.395 76.0391C108.613 75.9609 108.738 75.875 108.77 75.7812C108.879 75.4688 108.934 74.7578 108.934 73.6484V64.7891C108.934 63.8359 108.879 63.1953 108.77 62.8672C108.738 62.7422 108.621 62.6406 108.418 62.5625C108.23 62.4688 108.012 62.3984 107.762 62.3516C107.527 62.3047 107.332 62.2812 107.176 62.2812C107.113 62.2812 107.082 62.1641 107.082 61.9297C107.082 61.7109 107.113 61.5703 107.176 61.5078C108.207 61.5547 109.246 61.5781 110.293 61.5781H114.348C115.613 61.5781 116.746 61.7812 117.746 62.1875C118.762 62.5781 119.613 63.125 120.301 63.8281C121.004 64.5312 121.535 65.3359 121.895 66.2422C122.27 67.1484 122.457 68.1094 122.457 69.125C122.457 70.625 122.129 71.9766 121.473 73.1797C120.832 74.3672 119.902 75.3125 118.684 76.0156C117.465 76.7188 116.012 77.0703 114.324 77.0703C114.168 77.0703 113.926 77.0625 113.598 77.0469C113.285 77.0469 112.887 77.0391 112.402 77.0234C111.918 77.0078 111.504 76.9922 111.16 76.9766C110.816 76.9609 110.535 76.9609 110.316 76.9766L107.199 77.0703ZM114.699 75.875C117.871 75.875 119.457 73.5938 119.457 69.0312C119.457 67.8594 119.262 66.8047 118.871 65.8672C118.496 64.9141 117.941 64.1562 117.207 63.5938C116.488 63.0312 115.598 62.75 114.535 62.75H114.418C112.918 62.75 112.074 62.875 111.887 63.125C111.684 63.3906 111.582 63.875 111.582 64.5781V73.7656C111.582 74.625 111.668 75.2031 111.84 75.5C112.09 75.75 113.043 75.875 114.699 75.875Z" fill="white"/>
</svg>
