<svg width="114" height="18" viewBox="0 0 114 18" fill="none" xmlns="http://www.w3.org/2000/svg">
<path d="M1.125 0C0.50368 0 0 0.50368 0 1.125V7.425C0 8.04632 0.50368 8.55 1.125 8.55H7.875C8.24779 8.55 8.55 8.24779 8.55 7.875C8.55 7.50221 8.24779 7.2 7.875 7.2H1.35V1.35H7.2V4.5C7.2 4.87279 7.50221 5.175 7.875 5.175C8.24779 5.175 8.55 4.87279 8.55 4.5V1.125C8.55 0.50368 8.04632 0 7.425 0H1.125Z" fill="#181818"/>
<path d="M16.875 8.55C17.4963 8.55 18 8.04632 18 7.425V1.125C18 0.503679 17.4963 0 16.875 0H10.575C9.95368 0 9.45 0.503679 9.45 1.125V2.5875C9.45 2.96029 9.75221 3.2625 10.125 3.2625C10.4978 3.2625 10.8 2.96029 10.8 2.5875V1.35H16.65V7.2H11.925V5.9625C11.925 5.58971 11.6228 5.2875 11.25 5.2875C10.8772 5.2875 10.575 5.58971 10.575 5.9625V7.425C10.575 8.04632 11.0787 8.55 11.7 8.55H16.875Z" fill="#181818"/>
<path d="M10.575 18C9.95368 18 9.45 17.4963 9.45 16.875V11.7C9.45 11.0787 9.95368 10.575 10.575 10.575H12.0375C12.4103 10.575 12.7125 10.8772 12.7125 11.25C12.7125 11.6228 12.4103 11.925 12.0375 11.925H10.8V16.65H16.65V10.8H15.4125C15.0397 10.8 14.7375 10.4978 14.7375 10.125C14.7375 9.75221 15.0397 9.45 15.4125 9.45H16.875C17.4963 9.45 18 9.95368 18 10.575V16.875C18 17.4963 17.4963 18 16.875 18H10.575Z" fill="#181818"/>
<path d="M1.125 9.45C0.50368 9.45 0 9.95368 0 10.575V16.875C0 17.4963 0.50368 18 1.125 18H7.425C8.04632 18 8.55 17.4963 8.55 16.875V15.4125C8.55 15.0397 8.24779 14.7375 7.875 14.7375C7.50221 14.7375 7.2 15.0397 7.2 15.4125V16.65H1.35V10.8H7.2V12.0375C7.2 12.4103 7.50221 12.7125 7.875 12.7125C8.24779 12.7125 8.55 12.4103 8.55 12.0375V10.575C8.55 9.95368 8.04632 9.45 7.425 9.45H1.125Z" fill="#181818"/>
<path d="M24.0894 14.9111C24.0536 14.8756 24.0358 14.7807 24.0358 14.6267C24.0358 14.4252 24.0536 14.3244 24.0894 14.3244C24.1967 14.3244 24.3338 14.3067 24.5007 14.2711C24.6795 14.2356 24.8464 14.1881 25.0014 14.1289C25.1683 14.0696 25.2637 14.0044 25.2875 13.9333C25.371 13.6963 25.4127 13.157 25.4127 12.3156V5.59556C25.4127 4.87259 25.371 4.38667 25.2875 4.13778C25.2637 4.04296 25.1742 3.96593 25.0193 3.90667C24.8762 3.83556 24.7093 3.78222 24.5186 3.74667C24.3398 3.71111 24.1907 3.69333 24.0715 3.69333C24.0238 3.69333 24 3.60444 24 3.42667C24 3.26074 24.0238 3.15407 24.0715 3.10667C24.8583 3.14222 25.6511 3.16 26.4498 3.16H29.5434C30.509 3.16 31.3733 3.31407 32.1363 3.62222C32.9112 3.91852 33.5609 4.33333 34.0854 4.86667C34.6219 5.4 35.0272 6.01037 35.3014 6.69778C35.5875 7.38519 35.7306 8.11407 35.7306 8.88444C35.7306 10.0222 35.4802 11.0474 34.9795 11.96C34.4908 12.8607 33.7814 13.5778 32.8516 14.1111C31.9217 14.6444 30.813 14.9111 29.5255 14.9111C29.4063 14.9111 29.2215 14.9052 28.9712 14.8933C28.7328 14.8933 28.4288 14.8874 28.0592 14.8756C27.6896 14.8637 27.3737 14.8519 27.1115 14.84C26.8492 14.8281 26.6346 14.8281 26.4677 14.84L24.0894 14.9111ZM29.8116 14.0044C32.2317 14.0044 33.4417 12.2741 33.4417 8.81333C33.4417 7.92444 33.2927 7.12444 32.9946 6.41333C32.7085 5.69037 32.2853 5.11556 31.725 4.68889C31.1766 4.26222 30.4971 4.04889 29.6865 4.04889H29.5971C28.4526 4.04889 27.8089 4.1437 27.6658 4.33333C27.5108 4.53481 27.4333 4.90222 27.4333 5.43556V12.4044C27.4333 13.0563 27.4989 13.4948 27.63 13.72C27.8208 13.9096 28.548 14.0044 29.8116 14.0044Z" fill="#181818"/>
<path d="M36.7499 14.9111C36.7141 14.8756 36.6962 14.7807 36.6962 14.6267C36.6962 14.4252 36.7141 14.3244 36.7499 14.3244C36.8571 14.3244 36.9942 14.3067 37.1611 14.2711C37.34 14.2356 37.5069 14.1881 37.6618 14.1289C37.8287 14.0696 37.9241 14.0044 37.9479 13.9333C38.0314 13.6963 38.0731 13.157 38.0731 12.3156V5.59556C38.0731 4.87259 38.0314 4.38667 37.9479 4.13778C37.9241 4.04296 37.8347 3.96593 37.6797 3.90667C37.5367 3.83556 37.3698 3.78222 37.179 3.74667C37.0002 3.71111 36.8512 3.69333 36.732 3.69333C36.6843 3.69333 36.6604 3.60444 36.6604 3.42667C36.6604 3.26074 36.6843 3.15407 36.732 3.10667C37.1254 3.13037 37.5188 3.15407 37.9122 3.17778C38.3056 3.18963 38.7049 3.19556 39.1103 3.19556C39.3725 3.19556 39.7361 3.18963 40.2011 3.17778C40.666 3.15407 41.2263 3.13037 41.882 3.10667C43.2052 3.07111 44.2066 3.05333 44.8862 3.05333C44.91 3.23111 44.9458 3.44444 44.9934 3.69333C45.0411 3.94222 45.1007 4.22074 45.1723 4.52889L45.4047 5.57778C45.3451 5.63704 45.2199 5.66667 45.0292 5.66667C44.8981 5.66667 44.8146 5.62519 44.7789 5.54222C44.3855 4.48741 43.6225 3.96 42.49 3.96H41.5601C40.666 3.96 40.213 4.03704 40.2011 4.19111C40.1295 4.52296 40.0938 5.00296 40.0938 5.63111V8.42222C40.0938 8.49333 40.3561 8.52889 40.8806 8.52889H41.882C42.5615 8.52889 42.9728 8.49926 43.1158 8.44C43.247 8.38074 43.3483 8.17333 43.4198 7.81778C43.4556 7.6637 43.4914 7.51556 43.5271 7.37333C43.539 7.29037 43.6344 7.24889 43.8132 7.24889C43.9801 7.24889 44.0934 7.27852 44.153 7.33778V10.6978C44.1053 10.7452 43.9921 10.7689 43.8132 10.7689C43.6583 10.7689 43.5629 10.7215 43.5271 10.6267C43.4794 10.4607 43.4377 10.3244 43.4019 10.2178C43.3662 10.0993 43.3364 9.99852 43.3125 9.91556C43.2529 9.78519 43.2172 9.71407 43.2052 9.70222C43.1933 9.67852 43.1337 9.63111 43.0264 9.56C42.8595 9.46519 42.3111 9.41778 41.3813 9.41778C40.5229 9.41778 40.0938 9.46519 40.0938 9.56V12.3156C40.0938 12.9674 40.1474 13.4474 40.2547 13.7556C40.3024 13.9096 40.7077 13.9867 41.4707 13.9867H42.1323C43.0741 13.9867 43.7834 13.8622 44.2603 13.6133C44.451 13.5185 44.6656 13.3111 44.904 12.9911C45.1425 12.6711 45.3272 12.3096 45.4584 11.9067C45.4822 11.8356 45.5657 11.8 45.7087 11.8C45.971 11.8 46.1379 11.8356 46.2094 11.9067L45.6372 13.4889C45.5657 13.6785 45.4882 13.9215 45.4047 14.2178C45.3213 14.5022 45.2676 14.7333 45.2438 14.9111C44.7669 14.9111 43.7834 14.8933 42.2933 14.8578C41.5422 14.8341 40.9044 14.8222 40.3799 14.8222C39.8554 14.8222 39.4381 14.8281 39.1282 14.84L36.7499 14.9111Z" fill="#181818"/>
<path d="M56.5094 15C55.7226 15 54.9835 14.8459 54.2921 14.5378C53.6126 14.2296 53.0105 13.803 52.486 13.2578C51.9734 12.7126 51.5681 12.0904 51.27 11.3911C50.9839 10.68 50.8409 9.92741 50.8409 9.13333C50.8409 8.29185 50.9899 7.5037 51.2879 6.76889C51.5979 6.03407 52.0211 5.38222 52.5575 4.81333C53.094 4.24444 53.7139 3.8 54.4172 3.48C55.1325 3.16 55.9014 3 56.724 3C57.7969 3 59.1798 3.21926 60.8726 3.65778C60.9084 3.66963 60.9621 4.06074 61.0336 4.83111C61.0813 5.4237 61.117 5.83852 61.1409 6.07556C61.1647 6.31259 61.0395 6.43111 60.7653 6.43111C60.5984 6.43111 60.4673 6.39556 60.3719 6.32444C60.3362 6.15852 60.2825 5.99259 60.211 5.82667C60.1514 5.66074 60.0381 5.44741 59.8713 5.18667C59.5732 4.76 59.156 4.43407 58.6195 4.20889C58.095 3.9837 57.487 3.87111 56.7955 3.87111C56.0207 3.87111 55.3531 4.08444 54.7928 4.51111C54.2325 4.92593 53.8033 5.50667 53.5053 6.25333C53.2192 6.98815 53.0761 7.84148 53.0761 8.81333C53.0761 9.65481 53.2311 10.4726 53.541 11.2667C53.7437 11.7881 54.0238 12.2681 54.3815 12.7067C54.751 13.1333 55.1802 13.477 55.669 13.7378C56.1697 13.9867 56.7121 14.1111 57.2962 14.1111C58.0592 14.1111 58.6314 13.9985 59.0129 13.7733C59.1321 13.6904 59.1917 13.5541 59.1917 13.3644L59.1739 12.0844V11.96C59.1739 11.237 59.1321 10.757 59.0487 10.52C59.0248 10.4133 58.9354 10.3304 58.7804 10.2711C58.6255 10.2 58.4526 10.1526 58.2619 10.1289C58.0711 10.0933 57.9042 10.0756 57.7612 10.0756C57.7135 10.0756 57.6896 9.98667 57.6896 9.80889C57.6896 9.64296 57.7135 9.5363 57.7612 9.48889C57.9042 9.48889 58.2678 9.50667 58.852 9.54222C59.448 9.57778 59.9189 9.59556 60.2647 9.59556L62.4284 9.48889C62.4641 9.59556 62.482 9.6963 62.482 9.79111C62.482 9.99259 62.4582 10.0933 62.4105 10.0933C62.339 10.0933 62.178 10.1289 61.9277 10.2C61.6893 10.2711 61.5164 10.3304 61.4091 10.3778C61.2541 10.4607 61.1766 10.8933 61.1766 11.6756L61.1945 12.4222V12.8311C61.1945 13.0207 61.2243 13.2044 61.2839 13.3822C61.3435 13.56 61.3733 13.6489 61.3733 13.6489C61.3733 13.8148 61.2422 13.957 60.9799 14.0756C60.515 14.277 60.1633 14.4252 59.9249 14.52C59.6984 14.603 59.2633 14.7037 58.6195 14.8222C57.9877 14.9407 57.2843 15 56.5094 15Z" fill="#181818"/>
<path d="M74.2662 14.9644C73.0264 14.9644 72.0489 14.68 71.3336 14.1111C70.9164 13.7911 70.5289 13.4178 70.1713 12.9911C69.8256 12.5644 69.5216 12.1496 69.2593 11.7467C68.997 11.3319 68.7824 10.9941 68.6155 10.7333C68.401 10.4252 68.1923 10.1467 67.9897 9.89778C67.7989 9.64889 67.5128 9.52444 67.1313 9.52444C66.9406 9.52444 66.8452 9.62519 66.8452 9.82667V12.3333C66.8452 13.0207 66.8929 13.5244 66.9883 13.8444C67.0121 13.9393 67.1134 14.0222 67.2923 14.0933C67.483 14.1644 67.6857 14.2237 67.9003 14.2711C68.1148 14.3067 68.2758 14.3244 68.3831 14.3244C68.4308 14.3244 68.4546 14.4252 68.4546 14.6267C68.4546 14.7333 68.4427 14.8341 68.4188 14.9289C67.1194 14.8578 66.273 14.8222 65.8796 14.8222C65.5577 14.8222 65.1941 14.8281 64.7888 14.84C64.3954 14.8519 64.0795 14.8696 63.841 14.8933L63.4834 14.9289C63.4476 14.8696 63.4298 14.763 63.4298 14.6089C63.4298 14.4193 63.4476 14.3244 63.4834 14.3244C63.5907 14.3244 63.7338 14.3067 63.9126 14.2711C64.0914 14.2356 64.2583 14.1881 64.4133 14.1289C64.5802 14.0696 64.6755 14.0044 64.6994 13.9333C64.7709 13.72 64.8067 13.1807 64.8067 12.3156V5.59556C64.8067 4.92 64.7709 4.43407 64.6994 4.13778C64.6755 4.06667 64.5802 4.00148 64.4133 3.94222C64.2583 3.87111 64.0854 3.81185 63.8947 3.76444C63.7159 3.71704 63.5788 3.69333 63.4834 3.69333C63.4357 3.69333 63.4119 3.60444 63.4119 3.42667C63.4119 3.24889 63.4357 3.14222 63.4834 3.10667C64.759 3.14222 65.5518 3.16 65.8617 3.16C66.4459 3.14815 66.8989 3.14222 67.2207 3.14222C67.5426 3.14222 67.787 3.14222 67.9539 3.14222C68.1208 3.13037 68.2639 3.12444 68.3831 3.12444C69.0149 3.12444 69.6348 3.23704 70.2428 3.46222C70.8508 3.68741 71.3515 4.03111 71.7449 4.49333C72.1502 4.95556 72.3529 5.54222 72.3529 6.25333C72.3529 6.68 72.2575 7.09481 72.0668 7.49778C71.876 7.90074 71.6197 8.2563 71.2978 8.56444C70.976 8.87259 70.6124 9.10963 70.207 9.27556C70.1117 9.31111 70.0878 9.37037 70.1355 9.45333C70.4693 10.0459 70.8031 10.597 71.1369 11.1067C71.4707 11.6044 71.8045 12.0607 72.1383 12.4756C72.5555 12.9852 73.0026 13.4237 73.4794 13.7911C73.9682 14.1467 74.4153 14.3244 74.8206 14.3244C74.8683 14.3837 74.8921 14.4785 74.8921 14.6089C74.8921 14.7393 74.8683 14.8459 74.8206 14.9289C74.7491 14.9407 74.6656 14.9467 74.5702 14.9467C74.4868 14.9585 74.3855 14.9644 74.2662 14.9644ZM67.9897 8.67111H68.4546C68.8957 8.67111 69.2891 8.4637 69.6348 8.04889C69.9925 7.63407 70.1713 7.09481 70.1713 6.43111C70.1713 4.81926 69.4798 4.01333 68.097 4.01333C67.5843 4.01333 67.2386 4.05481 67.0598 4.13778C66.9167 4.19704 66.8452 4.81333 66.8452 5.98667V8.03111C66.8452 8.29185 66.9466 8.4637 67.1492 8.54667C67.3519 8.62963 67.632 8.67111 67.9897 8.67111Z" fill="#181818"/>
<path d="M75.7504 14.9111C75.7028 14.8637 75.6789 14.7748 75.6789 14.6444C75.6789 14.4311 75.6908 14.3244 75.7147 14.3244C75.8101 14.3244 75.9471 14.3007 76.126 14.2533C76.3167 14.2059 76.4955 14.1467 76.6624 14.0756C76.8412 13.9926 76.9545 13.9096 77.0022 13.8267C77.1214 13.6489 77.2346 13.4474 77.3419 13.2222C77.4492 12.9852 77.5625 12.7244 77.6817 12.44L81.0077 4.44C81.2939 3.71704 81.5144 3.29037 81.6694 3.16C81.7528 3.07704 81.8542 3.03556 81.9734 3.03556C82.0568 3.03556 82.1284 3.06519 82.188 3.12444L85.9432 12.44C86.0385 12.6652 86.128 12.8904 86.2114 13.1156C86.3068 13.3289 86.3962 13.5363 86.4796 13.7378C86.5273 13.8563 86.6346 13.963 86.8015 14.0578C86.9684 14.1407 87.1413 14.2059 87.3201 14.2533C87.4989 14.3007 87.636 14.3244 87.7314 14.3244C87.7791 14.3244 87.8029 14.4311 87.8029 14.6444C87.8029 14.7748 87.791 14.8637 87.7671 14.9111L85.514 14.8044L83.1894 14.9111C83.1417 14.8637 83.1178 14.7511 83.1178 14.5733C83.1178 14.4074 83.1417 14.3244 83.1894 14.3244C83.3324 14.3244 83.5291 14.2889 83.7795 14.2178C84.0298 14.1467 84.1788 14.0637 84.2265 13.9689C84.2623 13.8978 84.2802 13.8207 84.2802 13.7378C84.2802 13.6193 84.2503 13.4593 84.1907 13.2578C84.1311 13.0563 84.0477 12.8074 83.9404 12.5111L83.3145 10.8578C83.2668 10.8104 83.2251 10.7867 83.1894 10.7867C82.9986 10.7748 82.7721 10.7689 82.5098 10.7689C82.2595 10.757 81.9734 10.7511 81.6515 10.7511C81.0077 10.7511 80.3282 10.7689 79.613 10.8044C79.5414 10.8044 79.5057 10.8281 79.5057 10.8756L78.8261 12.5289C78.7069 12.8252 78.6175 13.0741 78.5579 13.2756C78.5102 13.4652 78.4864 13.6015 78.4864 13.6844C78.4864 13.8267 78.552 13.9452 78.6831 14.04C78.7546 14.0874 78.8619 14.1348 79.005 14.1822C79.1599 14.2178 79.3149 14.2533 79.4699 14.2889C79.6249 14.3126 79.7322 14.3244 79.7918 14.3244C79.8275 14.3363 79.8454 14.4193 79.8454 14.5733C79.8454 14.6563 79.8395 14.7274 79.8275 14.7867C79.8275 14.8341 79.8216 14.8756 79.8097 14.9111C79.3686 14.8874 79.005 14.8637 78.7189 14.84C78.4447 14.8163 78.1884 14.8044 77.9499 14.8044C77.7115 14.8044 77.4254 14.8104 77.0916 14.8222C76.7578 14.8341 76.3107 14.8637 75.7504 14.9111ZM81.3296 9.79111C81.7588 9.79111 82.2476 9.77333 82.7959 9.73778L82.8317 9.66667L81.4727 6.11111L80.0064 9.66667C80.0064 9.71407 80.0183 9.73778 80.0421 9.73778C80.4594 9.77333 80.8885 9.79111 81.3296 9.79111Z" fill="#181818"/>
<path d="M99.3189 14.9467C99.1401 14.9467 98.9493 14.8104 98.7467 14.5378L91.6296 5.15111V12.3511C91.6296 13.0385 91.6773 13.5244 91.7727 13.8089C91.8204 13.9037 91.9396 13.9926 92.1303 14.0756C92.333 14.1467 92.5416 14.2059 92.7562 14.2533C92.9827 14.3007 93.1437 14.3244 93.239 14.3244C93.2748 14.3244 93.2927 14.4074 93.2927 14.5733C93.3046 14.7393 93.2986 14.8519 93.2748 14.9111L91.0395 14.8044C90.825 14.8044 90.5686 14.8163 90.2706 14.84C89.9845 14.8519 89.7103 14.8637 89.448 14.8756C89.1977 14.8874 89.0189 14.8993 88.9116 14.9111C88.8639 14.8637 88.8401 14.763 88.8401 14.6089C88.8401 14.4193 88.8639 14.3244 88.9116 14.3244C89.0546 14.3244 89.2275 14.3067 89.4302 14.2711C89.6328 14.2237 89.8236 14.1644 90.0024 14.0933C90.1931 14.0104 90.3183 13.9096 90.3779 13.7911C90.4971 13.5541 90.5567 13.0563 90.5567 12.2978V5.32889C90.5567 4.70074 90.4912 4.26815 90.36 4.03111C90.3362 3.97185 90.2289 3.91852 90.0381 3.87111C89.8474 3.8237 89.6447 3.78222 89.4302 3.74667C89.2275 3.71111 89.0666 3.69333 88.9473 3.69333C88.8997 3.69333 88.8699 3.60444 88.8579 3.42667C88.8579 3.24889 88.8818 3.1363 88.9295 3.08889C89.5613 3.11259 90.0501 3.1363 90.3958 3.16C90.7534 3.17185 90.974 3.17778 91.0574 3.17778C91.2601 3.17778 91.4925 3.17185 91.7548 3.16C92.029 3.1363 92.333 3.11259 92.6668 3.08889C92.9291 3.56296 93.3523 4.19704 93.9364 4.99111C94.5206 5.78519 95.212 6.7037 96.0107 7.74667C96.8095 8.77778 97.6499 9.9037 98.5321 11.1244C98.544 11.0533 98.55 10.9585 98.55 10.84C98.5619 10.7096 98.5678 10.5615 98.5678 10.3956V5.56C98.5678 4.92 98.5082 4.44593 98.389 4.13778C98.3533 4.04296 98.246 3.96 98.0672 3.88889C97.8883 3.81778 97.6976 3.76444 97.4949 3.72889C97.2923 3.69333 97.1254 3.67556 96.9942 3.67556C96.9465 3.67556 96.9167 3.59259 96.9048 3.42667C96.9048 3.24889 96.9227 3.1363 96.9585 3.08889C97.5903 3.1363 98.091 3.17185 98.4606 3.19556C98.842 3.20741 99.0924 3.21333 99.2116 3.21333C99.3666 3.21333 99.5454 3.20741 99.7481 3.19556C99.9507 3.1837 100.171 3.16593 100.41 3.14222C100.898 3.10667 101.202 3.08889 101.322 3.08889C101.346 3.16 101.357 3.25481 101.357 3.37333C101.357 3.57481 101.334 3.67556 101.286 3.67556C101.179 3.67556 101.024 3.69926 100.821 3.74667C100.618 3.78222 100.422 3.83556 100.231 3.90667C100.04 3.97778 99.909 4.06667 99.8375 4.17333C99.7063 4.50519 99.6408 4.99704 99.6408 5.64889V12.3867C99.6408 12.6 99.6467 12.9141 99.6587 13.3289C99.6706 13.7437 99.6885 14.2593 99.7123 14.8756C99.6646 14.923 99.5335 14.9467 99.3189 14.9467Z" fill="#181818"/>
<path d="M102.359 14.9111C102.323 14.8756 102.305 14.7807 102.305 14.6267C102.305 14.4252 102.323 14.3244 102.359 14.3244C102.466 14.3244 102.603 14.3067 102.77 14.2711C102.949 14.2356 103.116 14.1881 103.271 14.1289C103.438 14.0696 103.533 14.0044 103.557 13.9333C103.64 13.6963 103.682 13.157 103.682 12.3156V5.59556C103.682 4.87259 103.64 4.38667 103.557 4.13778C103.533 4.04296 103.444 3.96593 103.289 3.90667C103.146 3.83556 102.979 3.78222 102.788 3.74667C102.609 3.71111 102.46 3.69333 102.341 3.69333C102.293 3.69333 102.269 3.60444 102.269 3.42667C102.269 3.26074 102.293 3.15407 102.341 3.10667C103.128 3.14222 103.921 3.16 104.719 3.16H107.813C108.778 3.16 109.643 3.31407 110.406 3.62222C111.181 3.91852 111.83 4.33333 112.355 4.86667C112.891 5.4 113.297 6.01037 113.571 6.69778C113.857 7.38519 114 8.11407 114 8.88444C114 10.0222 113.75 11.0474 113.249 11.96C112.76 12.8607 112.051 13.5778 111.121 14.1111C110.191 14.6444 109.082 14.9111 107.795 14.9111C107.676 14.9111 107.491 14.9052 107.241 14.8933C107.002 14.8933 106.698 14.8874 106.329 14.8756C105.959 14.8637 105.643 14.8519 105.381 14.84C105.119 14.8281 104.904 14.8281 104.737 14.84L102.359 14.9111ZM108.081 14.0044C110.501 14.0044 111.711 12.2741 111.711 8.81333C111.711 7.92444 111.562 7.12444 111.264 6.41333C110.978 5.69037 110.555 5.11556 109.994 4.68889C109.446 4.26222 108.767 4.04889 107.956 4.04889H107.866C106.722 4.04889 106.078 4.1437 105.935 4.33333C105.78 4.53481 105.703 4.90222 105.703 5.43556V12.4044C105.703 13.0563 105.768 13.4948 105.899 13.72C106.09 13.9096 106.817 14.0044 108.081 14.0044Z" fill="#181818"/>
</svg>
