<svg width="357" height="106" viewBox="0 0 357 106" fill="none" xmlns="http://www.w3.org/2000/svg">
<g clip-path="url(#clip0_1503_458)">
<path d="M139.718 77.9701C137.252 77.9701 134.711 77.7209 132.096 77.2224V67.1293H138.756C140.187 67.1293 141.174 66.5561 141.717 65.4096C141.963 64.9113 142.087 64.3879 142.087 63.8395C142.087 63.2414 141.963 62.718 141.717 62.2695L121.366 24.8872H136.167L149.487 51.4286L160.587 24.8872H175.387L156.517 66.0078C154.79 69.9454 152.718 72.8861 150.301 74.83C147.637 76.9234 144.109 77.9701 139.718 77.9701Z" fill="black"/>
<path d="M190.198 55.9145C194.392 55.9145 197.845 55.7899 200.559 55.5407V37.5973H213.509V77.2224H200.559V65.26C195.28 65.7586 190.346 66.0078 185.758 66.0078C182.404 66.0078 179.715 64.9861 177.692 62.9424C175.67 60.8988 174.658 58.1825 174.658 54.7932V37.5973H187.608V53.2977C187.608 54.0454 187.855 54.6684 188.348 55.1669C188.842 55.6653 189.458 55.9145 190.198 55.9145Z" fill="#0091EA"/>
<path d="M246.456 37.5973H260.147V77.2224H247.196V55.5407L234.616 77.2224H220.926V37.5973H233.876V59.279L246.456 37.5973Z" fill="#0091EA"/>
<path d="M271.979 77.9701C269.857 77.9701 267.391 77.7209 264.578 77.2224V67.503H267.538C269.413 67.503 270.399 66.5061 270.499 64.5125L271.979 37.5973H307.498V77.2224H294.548V47.6904H284.188L283.079 66.7555C282.881 70.1448 281.77 72.8612 279.748 74.9048C277.727 76.9484 275.136 77.9701 271.979 77.9701Z" fill="#0091EA"/>
<path d="M319.314 77.9701C317.192 77.9701 314.726 77.7209 311.913 77.2224V67.503H314.873C316.748 67.503 317.734 66.5061 317.834 64.5125L319.314 37.5973H354.833V77.2224H341.883V47.6904H331.523L330.414 66.7555C330.216 70.1448 329.105 72.8612 327.083 74.9048C325.061 76.9484 322.471 77.9701 319.314 77.9701Z" fill="#0091EA"/>
<path d="M93.4109 99.2042C92.3803 100.626 91.0115 101.763 89.4307 102.509C87.8498 103.255 86.1082 103.586 84.367 103.472C60.6267 103.472 36.8759 103.525 13.1356 103.472C4.81014 103.472 0.298751 99.1507 0.245924 90.6684C0.0768794 64.7412 0.0768794 38.8173 0.245924 12.8971C0.298751 4.27602 4.97919 0.0935059 13.6427 0.0935059C36.6892 0.0935059 59.7322 0.0935059 82.7715 0.0935059C91.509 0.0935059 96.1789 4.2867 96.2529 12.8331C96.4325 33.2549 96.2529 53.6766 96.4009 74.0878C96.4009 77.9608 94.4568 77.8009 91.805 77.8009C65.5889 77.7581 39.3798 77.7581 13.1779 77.8009C5.47575 77.8009 4.33469 78.9744 4.28188 86.7314C4.28188 88.3318 4.28188 89.9322 4.28188 91.5219C4.44035 97.3371 6.15194 99.1722 11.8889 99.2148C24.018 99.2896 36.189 99.2148 48.2969 99.2148L93.4109 99.2042Z" fill="#0091EA"/>
<path d="M87.2303 83.9251H11.4875C11.0441 83.9251 10.6846 84.2883 10.6846 84.7361C10.6846 85.184 11.0441 85.547 11.4875 85.547H87.2303C87.6738 85.547 88.0331 85.184 88.0331 84.7361C88.0331 84.2883 87.6738 83.9251 87.2303 83.9251Z" fill="#59688A"/>
<path d="M87.2303 91.682H11.4875C11.0441 91.682 10.6846 92.045 10.6846 92.4928C10.6846 92.9407 11.0441 93.3037 11.4875 93.3037H87.2303C87.6738 93.3037 88.0331 92.9407 88.0331 92.4928C88.0331 92.045 87.6738 91.682 87.2303 91.682Z" fill="#59688A"/>
</g>
<defs>
<clipPath id="clip0_1503_458">
<rect width="356.684" height="105.373" fill="white" transform="translate(0.119141 0.0935059)"/>
</clipPath>
</defs>
</svg>
