<svg width="20" height="19" viewBox="0 0 20 19" fill="none" xmlns="http://www.w3.org/2000/svg">
<path d="M12.2373 0H0V12.2373H7.08475V19H19.322V6.76271H12.2373V0ZM5.32584 2.89831L3.30459 8.66674H4.66949L4.99821 7.72881H7.08475V10.9492H1.28814V1.28814H10.9492V6.76271H8.26548L6.91165 2.89831H5.32584ZM6.78775 6.44068H5.44954L6.11864 4.5311L6.78775 6.44068ZM18.0339 8.05085V17.7119H8.37288V8.05085H18.0339Z" fill="white"/>
<path d="M12.1339 13.8668C12.2571 14.0646 12.3927 14.2545 12.54 14.4351C12.0731 14.687 11.5428 14.8131 10.9491 14.8135V16.1017C11.9209 16.1017 12.7891 15.8437 13.5254 15.3439C14.2616 15.8437 15.1299 16.1017 16.1017 16.1017V14.8135C15.5093 14.8135 14.979 14.6873 14.5108 14.4349C14.6581 14.2543 14.7937 14.0645 14.9169 13.8668C15.2882 13.2632 15.5612 12.6045 15.7258 11.9152H16.4237V10.6271H14.1695V9.66099H12.8813V10.6271H10.6271V11.9152H11.325C11.4896 12.6045 11.7626 13.2632 12.1339 13.8668ZM14.3921 11.9152C14.2588 12.361 14.068 12.7876 13.8245 13.184C13.7335 13.3302 13.6336 13.4707 13.5254 13.6046C13.425 13.4806 13.3319 13.3509 13.2464 13.2161C12.993 12.8108 12.7953 12.3733 12.6586 11.9152H14.3921Z" fill="white"/>
</svg>
