<svg width="247" height="72" viewBox="0 0 247 72" fill="none" xmlns="http://www.w3.org/2000/svg">
<path d="M96.6712 53.2119C94.9631 53.2119 93.2036 53.0417 91.393 52.701V45.8046H96.005C96.9958 45.8046 97.6791 45.4129 98.0548 44.6295C98.2257 44.289 98.3111 43.9314 98.3111 43.5567C98.3111 43.148 98.2257 42.7904 98.0548 42.4839L83.9624 16.9412H94.2115L103.436 35.0765L111.122 16.9412H121.371L108.304 45.0382C107.108 47.7288 105.673 49.7382 103.999 51.0663C102.154 52.4967 99.7118 53.2119 96.6712 53.2119Z" fill="black"/>
<path d="M131.628 38.1416C134.532 38.1416 136.924 38.0565 138.802 37.8862V25.6257H147.771V52.701H138.802V44.5273C135.147 44.8679 131.731 45.0382 128.553 45.0382C126.23 45.0382 124.368 44.3401 122.968 42.9437C121.567 41.5473 120.867 39.6913 120.867 37.3754V25.6257H129.835V36.3536C129.835 36.8645 130.005 37.2902 130.347 37.6308C130.689 37.9713 131.116 38.1416 131.628 38.1416Z" fill="#0091EA"/>
<path d="M170.587 25.6257H180.067V52.701H171.099V37.8862L162.388 52.701H152.907V25.6257H161.875V40.4405L170.587 25.6257Z" fill="#0091EA"/>
<path d="M188.261 53.2119C186.791 53.2119 185.084 53.0416 183.136 52.701V46.0599H185.185C186.484 46.0599 187.167 45.3787 187.236 44.0165L188.261 25.6257H212.858V52.701H203.889V32.5222H196.715L195.947 45.5491C195.81 47.865 195.041 49.721 193.641 51.1174C192.241 52.5138 190.447 53.2119 188.261 53.2119Z" fill="#0091EA"/>
<path d="M221.039 53.2119C219.57 53.2119 217.862 53.0416 215.915 52.701V46.0599H217.964C219.262 46.0599 219.946 45.3787 220.015 44.0165L221.039 25.6257H245.636V52.701H236.668V32.5222H229.494L228.726 45.5491C228.589 47.865 227.82 49.721 226.42 51.1174C225.02 52.5138 223.226 53.2119 221.039 53.2119Z" fill="#0091EA"/>
<path d="M64.6036 67.7209C63.89 68.6925 62.9421 69.4691 61.8474 69.9789C60.7527 70.4886 59.5466 70.715 58.3408 70.6371C41.9009 70.6371 25.4537 70.6735 9.01378 70.6371C3.24847 70.6371 0.124379 67.6844 0.0877965 61.8885C-0.0292655 44.1728 -0.0292655 26.4594 0.0877965 8.74852C0.124379 2.85785 3.36554 0 9.36497 0C25.3244 0 41.2815 0 57.236 0C63.2866 0 66.5205 2.86515 66.5717 8.70479C66.6961 22.6587 66.5717 36.6126 66.6742 50.5592C66.6742 53.2056 65.328 53.0963 63.4916 53.0963C45.3372 53.0671 27.1876 53.0671 9.04305 53.0963C3.7094 53.0963 2.91923 53.8982 2.88266 59.1984C2.88266 60.292 2.88266 61.3855 2.88266 62.4717C2.9924 66.4451 4.17766 67.6991 8.15045 67.7281C16.5497 67.7792 24.9781 67.7281 33.3626 67.7281L64.6036 67.7209Z" fill="#0091EA"/>
<path d="M60.3236 57.2809H7.87245C7.56535 57.2809 7.31641 57.5291 7.31641 57.8351C7.31641 58.1411 7.56535 58.3892 7.87245 58.3892H60.3236C60.6307 58.3892 60.8796 58.1411 60.8796 57.8351C60.8796 57.5291 60.6307 57.2809 60.3236 57.2809Z" fill="#59688A"/>
<path d="M60.3236 62.5811H7.87245C7.56535 62.5811 7.31641 62.8292 7.31641 63.1351C7.31641 63.4412 7.56535 63.6892 7.87245 63.6892H60.3236C60.6307 63.6892 60.8796 63.4412 60.8796 63.1351C60.8796 62.8292 60.6307 62.5811 60.3236 62.5811Z" fill="#59688A"/>
</svg>
